<?xml version="1.0" encoding="UTF-8"?>
<!DOCTYPE svg PUBLIC "-//W3C//DTD SVG 1.1//EN" "http://www.w3.org/Graphics/SVG/1.1/DTD/svg11.dtd">
<!-- Creator: CorelDRAW 2020 (64-Bit) -->
<svg xmlns="http://www.w3.org/2000/svg" xml:space="preserve" width="500mm" height="500mm" version="1.1" style="shape-rendering:geometricPrecision; text-rendering:geometricPrecision; image-rendering:optimizeQuality; fill-rule:evenodd; clip-rule:evenodd"
viewBox="0 0 50000 50000"
 xmlns:xlink="http://www.w3.org/1999/xlink"
 xmlns:xodm="http://www.corel.com/coreldraw/odm/2003">
 <defs>
  <style type="text/css">
   <![CDATA[
    .str2 {stroke:#A75F4A;stroke-width:7.62;stroke-miterlimit:22.9256}
    .str0 {stroke:#EF7F1A;stroke-width:7.62;stroke-miterlimit:22.9256}
    .str1 {stroke:#E31E24;stroke-width:7.62;stroke-miterlimit:22.9256}
    .fil2 {fill:#A75F4A}
    .fil0 {fill:#EF7F1A}
    .fil1 {fill:#E31E24}
   ]]>
  </style>
 </defs>
 <g id="Слой_x0020_1">
  <metadata id="CorelCorpID_0Corel-Layer"/>
  <path id="head" class="fil0 str0" d="M21946.03 34393.66c0,0 1759.65,1219.31 2047.52,192.52 287.87,-1026.79 511.75,-4267.31 2623.26,-7347.54 2111.5,-3080.23 3071.24,-4171.12 3071.24,-4171.12 0,0 95.98,3753.91 2527.35,5550.73 2431.37,1796.81 3199.07,2470.64 2719.24,3369.01 -479.83,898.37 -2143.36,2406.32 895.82,4331.48 3039.17,1925.17 4894.73,866.29 5918.45,-1379.67 1023.73,-2245.96 767.78,-4427.68 671.8,-5229.86 -95.98,-802.18 -287.87,-3529.45 351.93,-4588.25 639.8,-1058.81 1311.59,-4973.16 415.84,-6737.88 -895.75,-1764.73 -1471.56,-2278.05 -1471.56,-2278.05 0,0 639.8,-866.36 1823.49,-866.36 1183.69,0 2718.15,641.75 3167.15,352.96 449,-288.78 -191.82,-2342.22 -2399.3,-3497.29 -2207.49,-1155.06 -4158.88,-1347.59 -4990.72,-1347.59 -831.83,0 -1823.56,481.31 -1823.56,481.31 0,0 1535.62,-481.31 3966.99,930.46 2431.37,1411.76 2943.2,1636.3 2943.2,1636.3 0,0 -2015.46,-64.17 -3103.17,352.96 -1087.71,417.13 -1663.52,898.37 -2143.42,1475.94 -479.91,577.57 575.88,32.09 1375.65,1315.5 799.77,1283.42 1887.55,1925.16 1183.69,5197.84 -703.86,3272.68 -959.74,2663.1 -959.74,4876.97 0,2213.87 63.92,5807.42 63.92,5807.42 0,0 -63.92,3497.37 -2815.22,2823.54 -2751.31,-673.84 -1535.62,-3016.06 -1535.62,-3016.06 0,0 831.83,-1828.82 -895.75,-3272.68 -1727.58,-1443.85 -4030.9,-2502.66 -4446.82,-5133.66 -415.92,-2631.01 -351.93,-3369.02 575.81,-5326.19 927.74,-1957.18 1055.65,-2213.87 767.78,-2085.53 -287.87,128.35 -2079.44,1925.17 -4414.83,5486.63 -2335.39,3561.46 -4414.9,6577.52 -4830.75,8406.34 -415.84,1828.83 -191.89,2470.57 -799.76,2149.7 -607.88,-320.87 -1375.66,-737.93 -3679.05,-2245.96 -2303.4,-1508.03 -4510.74,-2438.55 -4190.87,-1700.55 319.86,738.01 2431.29,2791.44 4158.88,3753.99 1727.58,962.54 3231.13,1732.64 3231.13,1732.64z"/>
  <path id="eye" class="fil0" d="M36374.42 18928.7c0,0 991.66,-1058.8 2207.42,-96.26 1215.75,962.55 831.83,2470.5 511.89,2695.11 -319.93,224.61 -1567.61,-192.52 -1567.61,-802.11 0,-609.58 383.92,-994.63 639.87,-930.45 255.95,64.17 64.06,-417.21 -863.75,-641.75 -927.82,-224.54 -927.82,-224.54 -927.82,-224.54z"/>
  <path id="mane" class="fil1 str1" d="M12348.6 26950c0,0 351.93,-737.86 -991.73,-1732.56 -1343.65,-994.71 -2047.51,-1828.98 -1343.65,-2149.77 703.85,-320.8 895.89,-417.07 991.8,-770.03 95.91,-352.95 63.98,-705.84 831.76,-1251.32 767.77,-545.49 511.9,-1058.81 319.93,-1187.16 -191.96,-128.35 671.72,-770.02 -863.82,-930.46 -1535.55,-160.43 -3519.15,-128.42 -1375.66,-2149.77 2143.5,-2021.35 4286.86,-2502.58 5054.7,-2727.19 767.85,-224.61 1183.69,-545.49 1183.69,-545.49 0,0 959.89,-64.24 1151.77,-609.65 191.89,-545.41 -991.8,-1315.43 -511.89,-1700.48 479.9,-385.05 2207.48,-2149.77 5150.68,-3176.49 2943.19,-1026.72 4510.81,-1026.72 6046.43,-1026.72 1535.62,0 2879.28,-256.62 2527.35,-545.41 -351.93,-288.78 -1727.59,-866.35 -479.91,-898.44 1247.68,-32.09 4030.98,-705.85 6782.28,513.39 2751.31,1219.25 2751.31,641.68 3966.99,2117.62 1215.69,1475.93 927.75,1411.83 1055.72,1893.07 127.97,481.23 831.76,1090.96 1247.68,224.61 415.91,-866.36 -128.05,-1155.07 -447.91,-1604.29 -319.87,-449.22 447.91,0 -831.76,-1411.76 -1279.68,-1411.77 -3807.1,-2919.8 -4446.9,-2823.53 -639.8,96.26 -863.68,288.71 -1567.54,-64.18 -703.86,-352.89 -6078.49,-834.12 -7166.2,-160.36 -1087.71,673.76 -351.86,1507.95 -351.86,1507.95 0,0 -2687.25,-641.67 -6046.43,288.79 -3359.18,930.45 -7006.16,2983.96 -7742.02,4074.86 -735.85,1090.89 -479.83,1796.74 127.98,2021.35 607.8,224.61 -255.95,160.5 -1663.6,673.83 -1407.64,513.32 -4542.87,1925.09 -5150.68,3433.11 -607.8,1508.03 -927.67,1283.42 -543.82,2406.4 383.85,1122.98 1023.73,1411.76 2143.43,1475.94 1119.7,64.17 1503.55,192.45 703.79,545.41 -799.77,352.96 -2175.42,1508.03 -2143.43,2534.74 31.99,1026.72 479.9,1764.66 1439.64,2470.58 959.73,705.91 1279.6,1026.71 1919.47,1283.41 639.87,256.7 1023.72,0 1023.72,0z"/>
  <path class="fil2 str2" d="M15323.86 31281.56c0,0 639.8,288.71 -415.91,1957.17 -1055.72,1668.47 -5982.44,8534.7 -5982.44,8534.7 0,0 -1599.61,3048.14 -3679.05,1636.37 -2079.44,-1411.76 2047.52,-6320.82 2047.52,-6320.82l3679.04 -5294.1c0,0 1439.64,-2887.63 2175.42,-2085.52 735.78,802.11 -3615.06,6288.73 -3615.06,6288.73l-2687.31 4299.4c0,0 -1439.64,2021.42 -415.92,2053.51 1023.72,32.08 3903,-4812.8 3903,-4812.8l3071.24 -4588.25c0,0 1503.56,-2149.7 1919.47,-1668.39z"/>
  <ellipse id="nostril" class="fil0" cx="38917.81" cy="33479.42" rx="687.83" ry="689.84"/>
  <path id="smal_mane" class="fil1 str1" d="M39029.89 9335.21c0,0 543.97,738 959.81,738 415.84,0 1215.68,-1187.23 -127.97,-1925.16 -1343.66,-737.93 -3839.09,-1379.68 -5630.59,-1187.15 -1791.5,192.52 -2399.37,449.22 -2399.37,449.22 0,0 1887.47,-32.16 3839.01,513.32 1951.54,545.48 2015.53,481.31 3359.11,1411.77z"/>
 </g>
</svg>
